# xmcd
#
# Track frame offsets:
#	150
#	16502
#	33107
#	48240
#	63530
#	81016
#	95602
#	123360
#
# Disc length: 2043 seconds
#
# Revision: 0
# Processed by: cddbd v1.5.2PL0 Copyright (c) Steve Scherf et al.
# Submitted via: EasyCDDAExtractor 12.0.0.1
#
DISCID=5507f908
DTITLE=Angie Be - Soundwaves [CD-Single)
DYEAR=2009
DGENRE=Dance
TTITLE0=Soundwaves (Original Radio Edit)
TTITLE1=Soundwaves (Boyztronik Radio Edit)
TTITLE2=Soundwaves (N'r'gee Radio Edit)
TTITLE3=Soundwaves (Rls Disco Radio Edit)
TTITLE4=Soundwaves (Pf Pumping Radio Edit)
TTITLE5=Soundwaves (David Coroner Edit Mix)
TTITLE6=Soundwaves (Acoustic Piano)
TTITLE7=Soundwaves (Video)
EXTD=
EXTT0=
EXTT1=
EXTT2=
EXTT3=
EXTT4=
EXTT5=
EXTT6=
EXTT7=
PLAYORDER=
